<svg id='Pencil_Drawing_24' width='24' height='24' viewBox='0 0 24 24' xmlns='http://www.w3.org/2000/svg' xmlns:xlink='http://www.w3.org/1999/xlink'><rect width='24' height='24' stroke='none' fill='#000000' opacity='0'/>


<g transform="matrix(0.5 0 0 0.5 12 12)" >
<g style="" >
<g transform="matrix(1 0 0 1 -7.72 8.02)" >
<path style="stroke: none; stroke-width: 1; stroke-dasharray: none; stroke-linecap: butt; stroke-dashoffset: 0; stroke-linejoin: miter; stroke-miterlimit: 4; fill: rgb(245,206,133); fill-rule: nonzero; opacity: 1;" transform=" translate(-12.28, -28.02)" d="M 8.482 22.802 L 13.281 18.003 L 22.618 26.136 L 17.236 31.517 L 1.951 38.045 z" stroke-linecap="round" />
</g>
<g transform="matrix(1 0 0 1 -7.82 8.16)" >
<path style="stroke: none; stroke-width: 1; stroke-dasharray: none; stroke-linecap: butt; stroke-dashoffset: 0; stroke-linejoin: miter; stroke-miterlimit: 4; fill: rgb(150,122,68); fill-rule: nonzero; opacity: 1;" transform=" translate(-12.18, -28.16)" d="M 13.304 18.687 L 21.884999999999998 26.161 L 16.95 31.096 L 2.901 37.096000000000004 L 8.902999999999999 23.088000000000005 L 13.304 18.687 M 13.257 17.319 L 8.06 22.516 L 1 38.995 L 17.522 31.938999999999997 L 23.351 26.109999999999996 L 13.257 17.319 L 13.257 17.319 z" stroke-linecap="round" />
</g>
<g transform="matrix(1 0 0 1 -14.31 14.33)" >
<path style="stroke: none; stroke-width: 1; stroke-dasharray: none; stroke-linecap: butt; stroke-dashoffset: 0; stroke-linejoin: miter; stroke-miterlimit: 4; fill: rgb(54,64,77); fill-rule: nonzero; opacity: 1;" transform=" translate(-5.69, -34.33)" d="M 5.007 29.66 L 1.005 39 L 10.37 35 z" stroke-linecap="round" />
</g>
<g transform="matrix(1 0 0 1 3.71 -3.75)" >
<path style="stroke: none; stroke-width: 1; stroke-dasharray: none; stroke-linecap: butt; stroke-dashoffset: 0; stroke-linejoin: miter; stroke-miterlimit: 4; fill: rgb(186,224,189); fill-rule: nonzero; opacity: 1;" transform=" translate(-23.71, -16.25)" d="M 17.956 30.797 C 17.866 30.396 17.688 29.953 17.352 29.559 C 16.826 28.941000000000003 16.043 28.588 15.024000000000001 28.506 C 14.795000000000002 26.15 12.887 25.264 11.56 25.068 C 11.39 23.275000000000002 10.217 22.456000000000003 9.127 22.157 L 29.558999999999997 1.7070000000000007 L 38.294 10.441 L 17.956 30.797 z" stroke-linecap="round" />
</g>
<g transform="matrix(1 0 0 1 3.53 -3.53)" >
<path style="stroke: none; stroke-width: 1; stroke-dasharray: none; stroke-linecap: butt; stroke-dashoffset: 0; stroke-linejoin: miter; stroke-miterlimit: 4; fill: rgb(94,156,118); fill-rule: nonzero; opacity: 1;" transform=" translate(-23.53, -16.47)" d="M 29.558 2.414 L 37.586 10.442 L 18.161 29.883 C 18.051000000000002 29.663 17.91 29.442999999999998 17.732000000000003 29.233999999999998 C 17.189000000000004 28.598 16.430000000000003 28.201999999999998 15.467000000000002 28.054 C 15.084000000000003 25.895 13.378000000000002 24.95 12.008000000000003 24.644 C 11.765000000000002 23.229999999999997 10.940000000000003 22.404999999999998 10.029000000000003 21.961 L 29.558 2.414 M 29.558 1 L 8.06 22.516 C 8.06 22.516 8.073 22.516 8.097000000000001 22.516 C 8.440000000000001 22.516 11.080000000000002 22.610999999999997 11.080000000000002 25.525999999999996 C 11.080000000000002 25.525999999999996 14.547000000000002 25.633999999999997 14.547000000000002 28.986999999999995 C 17.995 28.986999999999995 17.522000000000002 31.937999999999995 17.522000000000002 31.937999999999995 L 39 10.442 L 29.558 1 L 29.558 1 z" stroke-linecap="round" />
</g>
<g transform="matrix(1 0 0 1 5.67 -5.63)" >
<path style="stroke: none; stroke-width: 1; stroke-dasharray: none; stroke-linecap: butt; stroke-dashoffset: 0; stroke-linejoin: miter; stroke-miterlimit: 4; fill: rgb(186,224,189); fill-rule: nonzero; opacity: 1;" transform=" translate(-25.67, -14.37)" d="M 30.269 1.711 L 13.008 18.987 L 21.077 27.026 L 38.323 9.765 z" stroke-linecap="round" />
</g>
</g>
</g>
</svg>
